<svg width="130" height="116" viewBox="0 0 130 116" fill="none" xmlns="http://www.w3.org/2000/svg">
<g clip-path="url(#clip0_672_2)">
<path d="M15.9491 115.72V101.013H11.539L7.96935 110.182L4.38937 101.013H0V115.72H3.13378V105.141L7.28448 115.72H8.65421L12.7945 105.141V115.72H15.9491Z" fill="#F89400"/>
<path d="M18.1089 110.389C18.1089 113.801 20.5578 115.99 23.8057 115.99C25.4556 115.99 27.1055 115.502 28.1951 114.506L26.9603 112.702C26.2754 113.366 25.1028 113.76 24.1066 113.76C22.3011 113.76 21.2219 112.63 21.0455 111.291H28.963V110.669C28.963 107.184 26.8046 104.809 23.6293 104.809C20.3814 104.809 18.1089 107.298 18.1089 110.389ZM23.6293 107.029C25.4764 107.029 26.182 108.377 26.2546 109.393H21.004C21.1285 108.336 21.886 107.029 23.6293 107.029Z" fill="#F89400"/>
<path d="M30.3046 109.279C30.3046 113.366 32.38 115.99 35.9289 115.99C39.4777 115.99 41.553 113.428 41.553 110.43C41.553 107.63 39.5088 105.379 36.5307 105.379C34.9845 105.379 33.3035 106.022 32.3592 107.402C32.7328 105.379 34.2063 104.145 37.3193 103.658L40.2144 103.191V100.639L37.0807 101.127C32.1102 101.894 30.3046 104.716 30.3046 109.279ZM38.6683 110.337C38.6683 112.059 37.6722 113.49 35.9289 113.49C34.1856 113.49 33.2205 112.059 33.2205 110.337C33.2205 108.729 34.1856 107.298 35.9289 107.298C37.6722 107.298 38.6683 108.729 38.6683 110.337Z" fill="#F89400"/>
<path d="M42.9636 110.389C42.9636 113.801 45.4124 115.99 48.6604 115.99C50.3105 115.99 51.9602 115.502 53.05 114.506L51.8147 112.702C51.1298 113.366 49.9574 113.76 48.9613 113.76C47.1557 113.76 46.0766 112.63 45.9002 111.291H53.8175V110.669C53.8175 107.184 51.6593 104.809 48.484 104.809C45.2361 104.809 42.9636 107.298 42.9636 110.389ZM48.484 107.029C50.3309 107.029 51.0367 108.377 51.1094 109.393H45.8587C45.9832 108.336 46.7407 107.029 48.484 107.029Z" fill="#F89400"/>
<path d="M54.848 115.99C57.5666 115.99 59.1545 114.268 59.5694 108.263L59.6421 107.516H63.056V115.72H65.8577V105.068H57.2553L57.079 107.588C56.7054 112.297 55.8651 113.272 54.848 113.272V115.99Z" fill="#F89400"/>
<path d="M71.3232 115.72L75.8473 108.906V115.72H78.649V105.068H75.8264L71.4372 111.644V105.068H68.6355V115.72H71.3232Z" fill="#F89400"/>
<path d="M95.1246 115.72C97.9264 115.72 99.4002 113.957 99.4002 111.748C99.4002 109.901 98.1445 108.377 96.5775 108.138C97.9682 107.848 99.1198 106.613 99.1198 104.757C99.1198 102.797 97.6878 101.013 94.8861 101.013H87.1349V115.72H95.1246ZM90.2683 103.678H94.2012C95.2596 103.678 95.9136 104.384 95.9136 105.286C95.9136 106.24 95.2596 106.925 94.2012 106.925H90.2683V103.678ZM90.2683 109.59H94.3048C95.54 109.59 96.204 110.389 96.204 111.312C96.204 112.37 95.4982 113.055 94.3048 113.055H90.2683V109.59Z" fill="#F89400"/>
<path d="M110.888 115.72V108.843C110.888 105.774 108.667 104.809 106.239 104.809C104.558 104.809 102.887 105.338 101.58 106.479L102.638 108.356C103.552 107.516 104.61 107.101 105.751 107.101C107.163 107.101 108.086 107.806 108.086 108.885V110.358C107.38 109.497 106.125 109.061 104.714 109.061C103.012 109.061 101.009 109.963 101.009 112.453C101.009 114.838 103.012 115.99 104.714 115.99C106.104 115.99 107.36 115.482 108.086 114.621V115.72H110.888ZM108.086 113.158C107.63 113.781 106.747 114.092 105.845 114.092C104.735 114.092 103.832 113.511 103.832 112.525C103.832 111.509 104.735 110.918 105.845 110.918C106.747 110.918 107.63 111.219 108.086 111.841V113.158Z" fill="#F89400"/>
<path d="M129.681 115.72V101.013H125.271L121.701 110.182L118.121 101.013H113.732V115.72H116.866V105.141L121.016 115.72H122.386L126.526 105.141V115.72H129.681Z" fill="#F89400"/>
<mask id="mask0_672_2" style="mask-type:luminance" maskUnits="userSpaceOnUse" x="15" y="32" width="17" height="63">
<path d="M15.4025 32.249H31.9742V94.3458H15.4025V32.249Z" fill="white"/>
</mask>
<g mask="url(#mask0_672_2)">
<path d="M31.8678 34.3338V90.8867C31.8678 92.793 30.3165 94.3358 28.402 94.3358H18.8657C16.9513 94.3358 15.3999 92.793 15.3999 90.8867V47.5062C15.3999 46.5675 15.7838 45.6677 16.4635 45.0169L28.9338 33.0917C29.6239 32.4305 30.7212 32.4513 31.3853 33.1384C31.694 33.46 31.8678 33.8878 31.8678 34.3338Z" fill="#F89400"/>
</g>
<mask id="mask1_672_2" style="mask-type:luminance" maskUnits="userSpaceOnUse" x="39" y="68" width="53" height="27">
<path d="M39.2794 68.0945H91.7441V94.3458H39.2794V68.0945Z" fill="white"/>
</mask>
<g mask="url(#mask1_672_2)">
<path d="M91.4617 71.696V90.8868C91.4617 92.7926 89.9102 94.3354 87.9956 94.3354H43.137C41.2225 94.3354 39.6686 92.7926 39.6686 90.8868V71.696C39.6686 69.7902 41.2225 68.2449 43.137 68.2449H87.9956C89.9102 68.2449 91.4617 69.7902 91.4617 71.696Z" fill="#F89400"/>
</g>
<mask id="mask2_672_2" style="mask-type:luminance" maskUnits="userSpaceOnUse" x="99" y="68" width="16" height="27">
<path d="M99.0495 68.0945H114.539V94.3458H99.0495V68.0945Z" fill="white"/>
</mask>
<g mask="url(#mask2_672_2)">
<path d="M114.534 71.6935L114.537 90.8868C114.537 92.7567 113.043 94.2787 111.177 94.3354L111.068 94.3384C111.068 94.3384 111.068 94.3384 111.068 94.3354H102.731C100.816 94.3354 99.2647 92.7901 99.2647 90.8868V71.696C99.2647 69.7902 100.816 68.2449 102.731 68.2449H111.066C112.98 68.2449 114.531 69.7902 114.534 71.6935Z" fill="#F89400"/>
</g>
<mask id="mask3_672_2" style="mask-type:luminance" maskUnits="userSpaceOnUse" x="80" y="16" width="35" height="45">
<path d="M80.4546 16.3177H114.539V60.7925H80.4546V16.3177Z" fill="white"/>
</mask>
<g mask="url(#mask3_672_2)">
<path d="M114.529 47.5217L114.531 57.0302C114.531 58.8996 113.037 60.4221 111.172 60.4788L111.063 60.4813H84.3122C82.3976 60.4813 80.8436 58.936 80.8436 57.0302V18.348C80.8436 17.3938 81.6191 16.6237 82.5764 16.6237C83.0202 16.6237 83.4456 16.7922 83.7673 17.093L113.445 45.0143C114.138 45.6678 114.529 46.5727 114.529 47.5217Z" fill="#F89400"/>
</g>
<mask id="mask4_672_2" style="mask-type:luminance" maskUnits="userSpaceOnUse" x="39" y="0" width="35" height="61">
<path d="M39.2794 0H73.1492V60.7925H39.2794V0Z" fill="white"/>
</mask>
<g mask="url(#mask4_672_2)">
<path d="M66.9595 1.27828L71.9557 5.98195C72.6486 6.6328 73.0426 7.54033 73.0426 8.48939V57.0302C73.0426 58.936 71.489 60.4813 69.5744 60.4813H43.137C41.2225 60.4813 39.6686 58.936 39.6686 57.0302V24.2911C39.6686 23.3524 40.0551 22.4552 40.7348 21.8044L62.1759 1.29902C63.5092 0.0232723 65.6156 0.0154931 66.9595 1.27828Z" fill="#F89400"/>
</g>
</g>
<defs>
<clipPath id="clip0_672_2">
<rect width="130" height="116" fill="white"/>
</clipPath>
</defs>
</svg>
